{"title":"Paranormal.Challenge.S01E04.Ohio.State.Reformatory.HDTV.XviD-tNe","uid":6526660,"size":366686208,"categoryP":"video","categoryS":"tv_shows","magnet":"?xt=urn:btih:358afad0edf8bc3bbfcf171beacaacc5c72d067b&amp;dn=Paranormal.Challenge.S01E04.Ohio.State.Reformatory.HDTV.XviD-tNe&amp;tr=udp%3A%2F%2Ftracker.openbittorrent.com%3A80&amp;tr=udp%3A%2F%2Fopen.demonii.com%3A1337&amp;tr=udp%3A%2F%2Ftracker.coppersurfer.tk%3A6969&amp;tr=udp%3A%2F%2Fexodus.desync.com%3A6969","seeders":1,"leechers":0,"uploader":"trialNerror","files":1,"time":1310189306,"description":"Format                           : AVI\nFormat/Info                      : Audio Video Interleave\nFile size                        : 350 MiB\nDuration                         : 42mn 26s\nOverall bit rate                 : 1 152 Kbps\nWriting application              : VirtualDubMod 1.5.10.2 (build 2542/release)\nWriting library                  : VirtualDubMod build 2542/release\n\nVideo\nID                               : 0\nFormat                           : MPEG-4 Visual\nFormat profile                   : Advanced Simple@L5\nFormat settings, BVOP            : Yes\nFormat settings, QPel            : No\nFormat settings, GMC             : No warppoints\nFormat settings, Matrix          : Default (H.263)\nCodec ID                         : XVID\nCodec ID/Hint                    : XviD\nDuration                         : 42mn 26s\nBit rate                         : 1 010 Kbps\nWidth                            : 624 pixels\nHeight                           : 352 pixels\nDisplay aspect ratio             : 16:9\nFrame rate                       : 29.970 fps\nColor space                      : YUV\nChroma subsampling               : 4:2:0\nBit depth                        : 8 bits\nScan type                        : Progressive\nBits/(Pixel*Frame)               : 0.153\nStream size                      : 307 MiB (88%)\nWriting library                  : XviD 64\n\nAudio\nID                               : 1\nFormat                           : MPEG Audio\nFormat version                   : Version 1\nFormat profile                   : Layer 3\nMode                             : Joint stereo\nMode extension                   : MS Stereo\nCodec ID                         : 55\nCodec ID/Hint                    : MP3\nDuration                         : 42mn 26s\nBit rate mode                    : Variable\nBit rate                         : 128 Kbps\nChannel(s)                       : 2 channels\nSampling rate                    : 48.0 KHz\nStream size                      : 38.7 MiB (11%)\nAlignment                        : Aligned on interleaves\nInterleave, duration             : 24 ms (0.72 video frame)\nInterleave, preload duration     : 526 ms","torrent":{"xt":"urn:btih:358afad0edf8bc3bbfcf171beacaacc5c72d067b","amp;dn":"Paranormal.Challenge.S01E04.Ohio.State.Reformatory.HDTV.XviD-tNe","amp;tr":["udp%3A%2F%2Ftracker.openbittorrent.com%3A80","udp%3A%2F%2Fopen.demonii.com%3A1337","udp%3A%2F%2Ftracker.coppersurfer.tk%3A6969","udp%3A%2F%2Fexodus.desync.com%3A6969"],"infoHash":"358afad0edf8bc3bbfcf171beacaacc5c72d067b","infoHashBuffer":{"type":"Buffer","data":[53,138,250,208,237,248,188,59,191,207,23,27,234,202,172,197,199,45,6,123]},"announce":[],"urlList":[]}}